<?xml version="1.0" encoding="UTF-8" standalone="no"?>
<svg
   xmlns:dc="http://purl.org/dc/elements/1.1/"
   xmlns:cc="http://creativecommons.org/ns#"
   xmlns:rdf="http://www.w3.org/1999/02/22-rdf-syntax-ns#"
   xmlns:svg="http://www.w3.org/2000/svg"
   xmlns="http://www.w3.org/2000/svg"
   xmlns:sodipodi="http://sodipodi.sourceforge.net/DTD/sodipodi-0.dtd"
   xmlns:inkscape="http://www.inkscape.org/namespaces/inkscape"
   width="1000"
   height="1000"
   version="1.1"
   viewBox="0 0 264.58334 264.58525"
   fill="rgba(0, 0, 0, 0.1)"
   id="svg12"
   sodipodi:docname="placeholder.svg"
   inkscape:version="0.92.4 (5da689c313, 2019-01-14)">
  <metadata
     id="metadata18">
    <rdf:RDF>
      <cc:Work
         rdf:about="">
        <dc:format>image/svg+xml</dc:format>
        <dc:type
           rdf:resource="http://purl.org/dc/dcmitype/StillImage" />
        <dc:title></dc:title>
      </cc:Work>
    </rdf:RDF>
  </metadata>
  <defs
     id="defs16" />
  <sodipodi:namedview
     pagecolor="#ffffff"
     bordercolor="#666666"
     borderopacity="1"
     objecttolerance="10"
     gridtolerance="10"
     guidetolerance="10"
     inkscape:pageopacity="0"
     inkscape:pageshadow="2"
     inkscape:window-width="2560"
     inkscape:window-height="1377"
     id="namedview14"
     showgrid="false"
     inkscape:zoom="0.574"
     inkscape:cx="-326.65505"
     inkscape:cy="71.669998"
     inkscape:window-x="-8"
     inkscape:window-y="-8"
     inkscape:window-maximized="1"
     inkscape:current-layer="svg12" />
  <rect
     style="opacity:1;fill:#000000;fill-opacity:1;stroke:none;stroke-width:0.26458523;stroke-linecap:butt;stroke-linejoin:miter;stroke-miterlimit:4;stroke-dasharray:1.05834094, 0.26458523000000000;stroke-dashoffset:0;stroke-opacity:1"
     id="rect4536"
     width="264.58524"
     height="264.58524"
     x="-0.00094779785"
     y="7.2021485e-06" />
  <g
     id="g4534"
     style="fill:#2e2f38;fill-opacity:1"
     transform="matrix(0.50000728,0,0,0.50000728,99.218863,9.4796169)">
    <path
       inkscape:connector-curvature="0"
       id="path2"
       d="m 132.29,247.5166 q 0,1.8128 -0.69252,3.4015 -0.69252,1.5887 -1.8942,2.7904 -1.1814,1.1814 -2.7701,1.8739 -1.5887,0.6925 -3.4015,0.69252 h -11.691 v -5.8457 h 11.691 q 0.61104,0 1.1406,-0.22405 0.52957,-0.22405 0.91657,-0.61105 0.40736,-0.40736 0.63141,-0.93694 0.22405,-0.52957 0.22405,-1.1406 0,-0.61105 -0.22405,-1.1406 -0.22405,-0.52955 -0.63141,-0.91657 -0.387,-0.40736 -0.91657,-0.63142 -0.52958,-0.22405 -1.1406,-0.22405 h -7.964 v -5.8457 h 7.964 q 0.61104,0 1.1406,-0.22405 0.52957,-0.22405 0.91657,-0.61105 0.40736,-0.40736 0.63141,-0.93694 0.22405,-0.54994 0.22405,-1.161 0,-0.61105 -0.22405,-1.1406 -0.22405,-0.52957 -0.63141,-0.91657 -0.387,-0.40736 -0.91657,-0.63142 -0.52958,-0.22405 -1.1406,-0.22405 h -11.691 v -5.8457 h 11.691 q 1.8128,0 3.4015,0.69252 1.5887,0.69252 2.7701,1.8942 1.2017,1.1814 1.8942,2.7701 0.69252,1.5887 0.69252,3.4015 0,1.6091 -0.59068,3.1367 -0.59068,1.5072 -1.6702,2.709 1.0795,1.2017 1.6702,2.7293 0.59068,1.5072 0.59068,3.1163 z"
       style="fill:#2e2f38;fill-opacity:1" />
    <path
       inkscape:connector-curvature="0"
       id="path4"
       d="m 92.105,264.5856 h -5.6013 v -30.125 h 1.3443 l 2.2201,2.6275 q 0.75363,-0.71289 1.6498,-1.3443 0.89617,-0.63141 1.8535,-1.0795 0.97768,-0.46847 2.0165,-0.73326 1.0388,-0.26479 2.0979,-0.26479 2.3016,0 4.3181,0.8351 2.0368,0.81473 3.5441,2.322 1.5276,1.5072 2.4034,3.6459 0.87584,2.1183 0.87584,4.7051 0,2.6886 -0.87584,4.8476 -0.87583,2.1387 -2.4034,3.6459 -1.5072,1.4869 -3.5441,2.2812 -2.0165,0.79436 -4.3181,0.79436 -0.73326,0 -1.4665,-0.16296 -0.71289,-0.16295 -1.4258,-0.42773 -0.69252,-0.28515 -1.385,-0.63141 -0.67215,-0.34626 -1.3036,-0.71289 z m 11.141,-19.411 q 0,-1.385 -0.4481,-2.4849 -0.42773,-1.0999 -1.1814,-1.8535 -0.75362,-0.77399 -1.772,-1.1814 -1.0184,-0.40736 -2.159,-0.40736 -1.1406,0 -2.159,0.40736 -0.99804,0.40737 -1.7517,1.1814 -0.75362,0.75362 -1.2017,1.8535 -0.42773,1.0999 -0.42773,2.4849 0,1.3239 0.42773,2.4238 0.4481,1.0999 1.2017,1.8739 0.75362,0.77399 1.7517,1.2017 1.0184,0.42773 2.159,0.42773 1.1406,0 2.159,-0.42773 1.0184,-0.42773 1.772,-1.2017 0.75363,-0.77399 1.1814,-1.8739 0.4481,-1.0999 0.4481,-2.4238 z"
       style="fill:#2e2f38;fill-opacity:1" />
    <path
       inkscape:connector-curvature="0"
       id="path6"
       d="m 81.86,256.2746 h -5.8253 v -20.857 q 0,-0.61105 -0.24442,-1.1406 -0.22405,-0.52958 -0.63142,-0.91657 -0.387,-0.40737 -0.91657,-0.63142 -0.52958,-0.22405 -1.1406,-0.22405 -0.61102,0 -1.1406,0.22405 -0.52958,0.22405 -0.93694,0.63142 -0.387,0.387 -0.61105,0.91657 -0.22405,0.52957 -0.22405,1.1406 v 20.857 h -5.8457 v -20.857 q 0,-0.61105 -0.22405,-1.1406 -0.22405,-0.52958 -0.63142,-0.91657 -0.387,-0.40737 -0.91657,-0.63142 -0.52958,-0.22405 -1.1406,-0.22405 -0.61105,0 -1.1406,0.22405 -0.52957,0.22405 -0.93694,0.63142 -0.387,0.387 -0.61104,0.91657 -0.22405,0.52957 -0.22405,1.1406 v 20.857 h -5.8457 v -20.857 q 0,-1.8128 0.67215,-3.4015 0.69252,-1.6091 1.8739,-2.7904 1.2017,-1.2017 2.7904,-1.8739 1.6091,-0.69252 3.4219,-0.69252 1.6295,0 3.1367,0.59068 1.5072,0.57031 2.709,1.6702 1.2017,-1.0999 2.6886,-1.6702 1.5072,-0.59068 3.1367,-0.59068 1.8128,0 3.4015,0.69252 1.6091,0.67215 2.7904,1.8739 1.2017,1.1814 1.8739,2.7904 0.69252,1.5887 0.69252,3.4015 z"
       style="fill:#2e2f38;fill-opacity:1" />
    <path
       inkscape:connector-curvature="0"
       id="path8"
       d="M 23.362,256.2746 H 17.109 L 5.845,237.0466 v 19.228 H -7e-4 v -29.208 h 6.253 l 11.264,19.248 v -19.248 h 5.8457 z"
       style="fill:#2e2f38;fill-opacity:1" />
    <path
       inkscape:connector-curvature="0"
       id="path10"
       d="M 48.782,256.2746 H 28.76 v -29.208 h 20.022 v 5.8457 H 34.606 v 5.8457 h 9.5934 v 5.8457 H 34.606 v 5.8253 h 14.176 z"
       style="fill:#2e2f38;fill-opacity:1" />
  </g>
</svg>
